<svg xmlns="http://www.w3.org/2000/svg" viewBox="0 0 372.63 77.6"><defs><style>.cls-1{fill:none;}.cls-2{fill:#515151;}.cls-3,.cls-6{fill:#3cb371;}.cls-4{fill:#f26739;}.cls-4,.cls-5{opacity:0.4;}.cls-5{fill:#a6d38d;}.cls-6{font-size:17.32px;stroke:#3cb371;stroke-miterlimit:10;stroke-width:0.4px;font-family:NeoTech-Light, NeoTech;}.cls-7{fill:#fff;}</style></defs><title>commitAsset 32</title><g id="Layer_2" data-name="Layer 2"><g id="Layer_1-2" data-name="Layer 1"><path class="cls-1" d="M212.32,27.73q-5.33,0-7.84,3.39-2.32,3.13-2.32,9.16v4.39q0,6,2.32,9.16,2.51,3.38,7.84,3.38t7.84-3.38q2.32-3.13,2.32-9.16V40.27q0-6-2.32-9.16Q217.65,27.73,212.32,27.73Z"/><path class="cls-1" d="M183.67,27.73c-1.38,0-2.93.08-4.64.25q-2.07.24-4.08.57V56.39a42.3,42.3,0,0,0,8.72.82q9.54,0,9.53-12.54V40.53Q193.2,27.73,183.67,27.73Z"/><path class="cls-1" d="M39.37,32.35q-6.4,0-6.4,8.08v4.85q0,8.08,6.4,8.08t6.4-8.08V40.43Q45.77,32.35,39.37,32.35Z"/><path class="cls-2" d="M21.36,26.31a27.47,27.47,0,0,0-3-.54,44.45,44.45,0,0,0-4.73-.24,13.31,13.31,0,0,0-9.75,3.59Q0,33,0,40.07v5.56Q0,52.7,3.89,56.59q3.65,3.59,9.75,3.59a34.78,34.78,0,0,0,4.73-.3,21.66,21.66,0,0,0,3-.48,1.47,1.47,0,0,0,1.26-1.56V54q0-.89-1.08-.89h-.18q-1.91.24-3.29.3-1.68.12-4.43.12a5.13,5.13,0,0,1-4-1.62C8.5,50.54,7.9,48.47,7.9,45.64V40.07q0-4.25,1.79-6.29a5.22,5.22,0,0,1,4-1.55q2.75,0,4.43.12,1.38.06,3.29.3h.18c.72,0,1.08-.3,1.08-.9V27.86A1.46,1.46,0,0,0,21.36,26.31Z"/><path class="cls-2" d="M39.37,25.53q-6.82,0-10.65,4.25-3.65,4-3.65,10.65v4.85q0,6.64,3.65,10.66,3.83,4.25,10.65,4.25T50,55.93q3.65-4,3.65-10.66V40.43q0-6.64-3.65-10.65Q46.19,25.53,39.37,25.53Zm6.4,19.75q0,8.08-6.4,8.08T33,45.28V40.43q0-8.08,6.4-8.08t6.4,8.08Z"/><path class="cls-2" d="M125.34,25.53a18.51,18.51,0,0,0-5.33.72,23.45,23.45,0,0,0-4.55,2q-2.22-2.7-7-2.69a13.07,13.07,0,0,0-4.67.84,53.47,53.47,0,0,0-5.47,2.94l-.08-.12a7.71,7.71,0,0,0-4.6-3.24,13.27,13.27,0,0,0-3.42-.42,18.48,18.48,0,0,0-5.33.72,23.48,23.48,0,0,0-4.55,2q-2.21-2.7-7-2.69a13.07,13.07,0,0,0-4.67.84,21.77,21.77,0,0,0-3.89,2V27.15a1.06,1.06,0,0,0-1.2-1.2H58.4a1.06,1.06,0,0,0-1.2,1.2v31.3q0,1.25,1.2,1.25h5.5q1.2,0,1.2-1.25V34.27q3.71-2,5.5-2,2.51,0,3.35,1.2t.78,4.61V58.45c0,.84.4,1.25,1.2,1.25h5.51q1.2,0,1.2-1.25V38.1a32.61,32.61,0,0,0-.24-4.31,13,13,0,0,1,3.17-1.2,11.62,11.62,0,0,1,2.39-.3q2.51,0,3.41,1.2c.6.8.9,2.34.9,4.61V58.45q0,1.25,1.2,1.25H99q1.2,0,1.2-1.25V34.27q3.71-2,5.51-2,2.51,0,3.35,1.2t.78,4.61V58.45q0,1.25,1.2,1.25h5.5q1.2,0,1.2-1.25V38.1a32.59,32.59,0,0,0-.24-4.31,13,13,0,0,1,3.17-1.2,11.64,11.64,0,0,1,2.39-.3q2.51,0,3.41,1.2c.6.8.9,2.34.9,4.61V58.45q0,1.25,1.2,1.25h5.51q1.2,0,1.2-1.25V38.1q0-5.92-1.92-8.91Q131,25.53,125.34,25.53Z"/><path class="cls-2" d="M146.78,25.95h-5.5a1.06,1.06,0,0,0-1.2,1.2v31.3q0,1.25,1.2,1.25h5.5q1.2,0,1.2-1.25V27.15A1.06,1.06,0,0,0,146.78,25.95Z"/><path class="cls-2" d="M166.24,54h-3.17c-1.08,0-1.73-.18-2-.54a6.49,6.49,0,0,1-.36-2.82V31.87h5.38a1.06,1.06,0,0,0,1.2-1.19V27.15a1.06,1.06,0,0,0-1.2-1.2h-5.38V19.79c0-.6-.32-.9-1-.9l-5.8,1c-.8.16-1.2.56-1.2,1.2V50.66q0,5.75,2.21,7.79,2,1.73,7.3,1.73a25.9,25.9,0,0,0,4.07-.42q1.14-.18,1.14-1.08V54.91Q167.5,54,166.24,54Z"/><path class="cls-2" d="M183.67,25.28a47.28,47.28,0,0,0-5.58.38q-2.57.32-5,.81a1.13,1.13,0,0,0-.94,1.19V70.32c0,.79.35,1.19,1.07,1.19h.63c.71,0,1.06-.4,1.06-1.19V58.72a39.74,39.74,0,0,0,8.72.94q12.29,0,12.29-15V40.53q0-7.09-2.88-11Q189.94,25.28,183.67,25.28Zm9.53,19.38q0,12.55-9.53,12.54a42.3,42.3,0,0,1-8.72-.82V28.55q2-.32,4.08-.57c1.71-.17,3.26-.25,4.64-.25q9.54,0,9.53,12.8Z"/><path class="cls-2" d="M212.32,25.28q-12.92,0-12.92,15v4.39q0,15,12.92,15t12.92-15V40.27Q225.24,25.29,212.32,25.28Zm10.16,19.38q0,6-2.32,9.16-2.51,3.38-7.84,3.38t-7.84-3.38q-2.32-3.13-2.32-9.16V40.27q0-6,2.32-9.16,2.51-3.38,7.84-3.39t7.84,3.39q2.32,3.13,2.32,9.16Z"/><path class="cls-2" d="M272.89,25.28q-12.92,0-12.92,15v4.39q0,15,12.92,15t12.92-15V40.27Q285.81,25.29,272.89,25.28Zm10.16,19.38q0,6-2.32,9.16-2.51,3.38-7.84,3.38t-7.84-3.38q-2.32-3.13-2.32-9.16V40.27q0-6,2.32-9.16,2.51-3.38,7.84-3.39t7.84,3.39q2.32,3.13,2.32,9.16Z"/><path class="cls-2" d="M241.37,25.28a16.06,16.06,0,0,0-8.72,2.88V26.85q0-1.25-1.13-1.25H231c-.75,0-1.13.42-1.13,1.25V58.09a1,1,0,0,0,1.19,1.19h.38a1.05,1.05,0,0,0,1.19-1.19V30.62a19.78,19.78,0,0,1,4.83-2.32,13.23,13.23,0,0,1,3.89-.57c1.13,0,1.69-.34,1.69-1v-.51C243.06,25.6,242.5,25.28,241.37,25.28Z"/><path class="cls-2" d="M257.52,57.22h-3.11a5,5,0,0,1-3.2-.75c-.75-.62-1.13-1.82-1.13-3.58V28.17h7.47q1.19,0,1.19-1v-.62c0-.63-.4-.94-1.19-.94h-7.47V19.14c0-.8-.33-1.2-1-1.2h-.69c-.71,0-1.07.4-1.07,1.2V52.88q0,3.83,1.88,5.4,1.63,1.37,5.21,1.38a26.07,26.07,0,0,0,3.26-.18c.71-.13,1.06-.46,1.06-1v-.38c0-.56-.41-.84-1.21-.87h0Z"/><rect class="cls-3" x="139.9" y="13.38" width="8.08" height="8.08"/><polygon class="cls-4" points="257.52 57.22 257.53 57.22 257.52 57.22 257.52 57.22"/><path class="cls-5" d="M283.21,57.08a11.73,11.73,0,0,1-1.66-.28,18.86,18.86,0,0,0-2.16,2,12.53,12.53,0,0,0,1.33.38A27.31,27.31,0,0,1,283.21,57.08Z"/><path class="cls-5" d="M294.07,50.49a12.27,12.27,0,0,1-.47,1.37l.15-.05c1-.32,2.06-.61,3.11-.9.13-.48.24-1,.33-1.5Q295.61,49.94,294.07,50.49Z"/><path class="cls-5" d="M361,8.86a34.83,34.83,0,0,0-49.18,2.77c-5,5.55-.22,15.89,8.19,25.66.4.46.79.92,1.2,1.38a31.34,31.34,0,0,1-9.1,5.51c-4.62,2-9.87,3.55-14.93,5.24-.1.52-.21,1-.33,1.5,5.62-1.53,11.59-2.68,16.89-4.36a31.75,31.75,0,0,0,10.23-5l.29.29a28.47,28.47,0,0,1-3.45,3.34c-2,1.7-4.25,3.33-6.4,5.06-1,.79-1.93,1.59-2.83,2.44a12.25,12.25,0,0,0-.9,1,27,27,0,0,1-3.19,3.64c-6.69,5.38-16.92,8-17.24,17.63,2.07-6.76,7.56-11.32,14.81-14.74-1.09,1.68-2.53,3.48-3.89,5.45a5.75,5.75,0,0,1-1.67-1.12,3.19,3.19,0,0,0,1.4,1.53c-2.19,3.25-4.11,7-4,11.51A102.3,102.3,0,0,1,303,66.86l.38-.56c1.78-2.73,3.67-5.39,5.71-7.95a136.38,136.38,0,0,0,13-6c1.82-.92,3.63-1.85,5.48-2.75-.65,1.51-1.48,3.22-2.28,5.07A36.28,36.28,0,0,0,323,61.47a20.38,20.38,0,0,0,4.79-3.35,53.28,53.28,0,0,0,6.41-7.62c.68.51,1.35,1,2,1.5a32.88,32.88,0,0,1-4.77,6.92,37.88,37.88,0,0,1-4.78,3.47,36.83,36.83,0,0,1-4.1,2.21c0,.34-.07.68-.07,1-1.09.43-2.32.94-3.61,1.45a47,47,0,0,1-4.48,1.54c-3.25.9-6.44,1.19-8.66-.39,1.17,1.95,4.41,2,8.07,1.49,1.11-.16,2.26-.37,3.4-.6,1.43-.29,2.84-.6,4.15-.87,0,1.85-1.19,5.37-4.07,6.31,4.66-.53,7.15-4.88,8.72-8.33a38.25,38.25,0,0,0,13.23-12.18c10,6.38,19.85,9.2,24.5,4A34.83,34.83,0,0,0,361,8.86Zm-40.52,41.8L316,52.08q2.47-2.1,5-4.14c1.72-1.37,3.47-2.71,5.32-4l.79.72.56.52.71.64.18.17C326,47.62,323.31,49.17,320.49,50.65Z"/><path class="cls-5" d="M279.39,58.84A13.84,13.84,0,0,0,276,65.48c.29,0,.28-.19.25-.39a24.77,24.77,0,0,1,4.47-5.87A12.53,12.53,0,0,1,279.39,58.84Z"/><path class="cls-5" d="M294.07,50.49c-4.78,1.71-9.21,3.65-12.52,6.32a11.73,11.73,0,0,0,1.66.28,34,34,0,0,1,10.38-5.22A12.27,12.27,0,0,0,294.07,50.49Z"/><path class="cls-3" d="M286.83,24.92h-.26c-.16,0-.44.07-.56.5l-.82,3a.64.64,0,0,0,0,.22.41.41,0,0,0,.43.43h.33a.58.58,0,0,0,.58-.51l.69-2.92a.42.42,0,0,0,0-.19v-.07A.38.38,0,0,0,286.83,24.92Zm0,.24Z"/><path class="cls-3" d="M291.84,24.9l-2.53.35a.58.58,0,0,0-.54.58v.09a.51.51,0,0,0,.12.32.52.52,0,0,0,.41.14l1.86-.23V37.62a.54.54,0,0,0,.58.58h.07a.54.54,0,0,0,.58-.58V25.48A.53.53,0,0,0,291.84,24.9Zm0,.24Z"/><path class="cls-3" d="M355.81,14.67A29.33,29.33,0,0,0,314.41,17c-3.94,4.41-.6,12.4,5.73,20.2l.05,0c-5.46,4.06-14.13,5.53-22.61,6.89l-2.76.45c-7.47,1.23-14.65,2.72-19.45,6.33a15.35,15.35,0,0,0-2.24,2.05,13.48,13.48,0,0,0-2.62,4.34h0c.28,0,.3-.15.31-.35a26.5,26.5,0,0,1,5-4.82,31.61,31.61,0,0,1,14.38-5.57c1.5-.22,3-.4,4.58-.55.93-.09,1.86-.18,2.79-.25,5-.42,10-.7,14.56-1.5a33.25,33.25,0,0,0,9.23-5.62c.5.58,1,1.16,1.54,1.74l.09.1c-2.34,2.38-5.82,4.29-9.24,6.16-2.06,1.13-4.16,2.28-6.07,3.59-1.63,1.11-3.08,3-4.76,3.92-7.44,4.27-18,5.3-19.77,14.74,3.1-6.35,9.23-10,16.92-12.25-3.61,4-9.79,8.45-10.73,15.89a102.47,102.47,0,0,1,15-17.13c2.21-.47,4.31-1,6.38-1.62q2.72-.77,5.35-1.62l4.45-1.42c1.14-.37,2.28-.74,3.43-1.1-.55.87-1.18,1.81-1.85,2.81-2.25,3.39-4.83,7.5-5.62,12.23-3.76.84-9.07,2.32-13.09,1.7l-.37.56c3.26.74,8.07.33,11.95.15a7,7,0,0,1-.51,1.61,9,9,0,0,1-.59,1.09,5.86,5.86,0,0,1-3.91,2.89c3.05.13,5.43-1.48,7.31-3.49a22.31,22.31,0,0,0,1.67-2c.33-.46.64-.91.93-1.35q1.42-.52,2.75-1.12a36.83,36.83,0,0,0,4.1-2.21,37.88,37.88,0,0,0,4.78-3.47,47.2,47.2,0,0,0,6-6.25c8.44,5.39,16.73,7.79,20.66,3.39A29.32,29.32,0,0,0,355.81,14.67ZM321.07,47.93c-2.17.82-4.37,1.62-6.65,2.34q-2.3.73-4.67,1.41c3.61-2.23,7.23-4.44,11.07-6.47,1.49-.79,3-1.55,4.57-2.27-.23-.22-.44-.45-.65-.69l.65.69q.88.87,1.79,1.71l.56.51C325.62,46.13,323.3,47.08,321.07,47.93Zm13.16,2.54,0,0a53.28,53.28,0,0,1-6.41,7.62A20.38,20.38,0,0,1,323,61.47a19.54,19.54,0,0,1-2,.88,18.8,18.8,0,0,1,4.29-7.66,22.15,22.15,0,0,1,7.43-5.36l-.09-.07-.76-.62.76.62q.9.69,1.8,1.34Z"/><text class="cls-6" transform="translate(294.23 37.97)">8</text><path class="cls-3" d="M355.68,14.54A29.32,29.32,0,0,0,314.28,17c-3.92,4.42-.55,12.41,5.81,20.18l.05,0c.85,1,1.75,2.09,2.7,3.12l0,0,.08.09,0,0q1.19,1.29,2.46,2.54h0q1,1,2,1.92l.33.3h0c1.55,1.41,3.16,2.76,4.8,4q.89.68,1.8,1.33l-.11-.07,0,0a53.36,53.36,0,0,1-6.38,7.64,20.36,20.36,0,0,1-4.77,3.36c0,.08,0,.17,0,.25l-.39-.07c-.52.24-1,.49-1.59.7.07-.27.18-.52.26-.78a19,19,0,0,1,4-6.9,22.17,22.17,0,0,1,7.41-5.39l-.15-.12c-1.41-1.08-2.8-2.22-4.15-3.41l-.68-.61c-2.15,1-4.38,1.91-6.66,2.79s-4.36,1.64-6.64,2.37q-2.3.75-4.67,1.42c3.6-2.25,7.21-4.47,11-6.51,1.49-.79,3-1.56,4.56-2.29q-1.27-1.24-2.47-2.52c-2.33,2.43-5.71,4.27-9.16,6.18-2.06,1.13-4.15,2.29-6.06,3.61-1.62,1.12-3.07,3-4.75,3.94a41.42,41.42,0,0,1-4.47,2.17c-2.26,1-4.58,1.86-6.73,2.92a19.7,19.7,0,0,0-5.24,3.54A11.38,11.38,0,0,0,283.21,69a18.82,18.82,0,0,1,3.31-4.74,22.71,22.71,0,0,1,5-3.92,37.19,37.19,0,0,1,8.14-3.5l.46-.15-.31.33c-3.63,3.94-9.47,8.36-10.36,15.6A102.75,102.75,0,0,1,301,58.66c1.1-1.11,2.21-2.21,3.36-3.27,2.2-.48,4.31-1,6.38-1.65q2.71-.78,5.34-1.64l4.44-1.44,3.42-1.11c-.55.87-1.18,1.81-1.83,2.82a38.59,38.59,0,0,0-4.89,9.5,19.89,19.89,0,0,0-.68,2.75,73.07,73.07,0,0,1-9.12,1.8,16.5,16.5,0,0,1-4,0,8.43,8.43,0,0,1-2.18-.61,5.69,5.69,0,0,1-1.67-1.11,3.17,3.17,0,0,0,1.4,1.52,7.25,7.25,0,0,0,2.08.76,21.76,21.76,0,0,0,4.45.41c2.48,0,5.16-.19,7.5-.3a7.12,7.12,0,0,1-.5,1.61,9,9,0,0,1-.59,1.1A5.86,5.86,0,0,1,310,72.66a8.2,8.2,0,0,0,5-1.54,13.51,13.51,0,0,0,2.28-2c.37-.4.72-.81,1-1.23s.42-.54.62-.81c.33-.45.64-.91.93-1.35q1.42-.53,2.74-1.13a37.34,37.34,0,0,0,3.89-2.1l.2-.12a37.7,37.7,0,0,0,4.76-3.48,47.87,47.87,0,0,0,6-6.29c8.47,5.37,16.78,7.73,20.69,3.32A29.32,29.32,0,0,0,355.68,14.54Z"/><path class="cls-7" d="M333.6,50a21,21,0,0,0-5.75,8.1,53.36,53.36,0,0,0,6.41-7.61Z"/></g></g></svg>