<svg width="112" height="111" viewBox="0 0 112 111" fill="none" xmlns="http://www.w3.org/2000/svg">
<rect width="112" height="111" fill="white"/>
<path d="M107.53 33.8951C101.625 20.2514 91.5904 10.3287 77.7088 4.46109C70.7706 1.52847 63.5018 0.0305176 55.908 0.0305176C48.3154 0.0305176 41.1002 1.51433 34.1697 4.46109C20.403 10.3131 10.3243 20.2294 4.40899 33.8951C1.44484 40.7416 0 47.9143 0 55.4391C0 62.9653 1.44484 70.1976 4.40899 77.0455C10.3243 90.7112 20.4043 100.687 34.1697 106.54C41.1014 109.487 48.3152 110.97 55.908 110.97C63.5007 110.97 70.7706 109.472 77.7077 106.54C91.5893 100.673 101.624 90.688 107.53 77.0455C110.503 70.1756 112 62.9653 112 55.4391C112 47.9143 110.504 40.7648 107.53 33.8951ZM98.59 79.9587C94.194 87.4303 88.1716 93.3578 80.5867 97.7403C73.0478 102.097 64.7874 104.294 55.9092 104.294C49.235 104.294 42.8664 103.02 36.8033 100.41C30.7405 97.8012 25.5058 94.3715 21.1268 90.0328C16.7478 85.693 13.2625 80.4544 10.6563 74.4353C8.05778 68.4383 6.79851 62.0552 6.79851 55.4393C6.79851 46.6391 8.98013 38.494 13.3514 31.043C17.7383 23.5649 23.7619 17.6311 31.2932 13.2613C38.8232 8.89165 47.0299 6.70612 55.908 6.70612C64.7874 6.70612 73.0463 8.90453 80.5855 13.2613C88.1704 17.644 94.1797 23.5776 98.5887 31.0429C102.998 38.5069 105.202 46.6391 105.202 55.4391C105.202 64.2395 103.012 72.4401 98.59 79.9587Z" fill="#C74540"/>
<path d="M59.4601 54.9538V23.5167C59.4601 21.6355 57.8062 20.1182 55.9079 20.1182C54.1326 20.1182 52.54 21.6355 52.54 23.5167V55.4392C52.54 55.5001 52.6628 55.7435 52.6628 55.9249C52.54 57.0175 52.8471 57.9278 53.5813 58.6567L71.8917 76.8023C73.117 78.0166 75.3822 78.0166 76.6065 76.8023C78.0146 75.4067 77.922 73.3817 76.6065 72.0687L59.4601 54.9538Z" fill="#C74540"/>
</svg>
