<svg width="145" height="105" viewBox="0 0 145 105" fill="none" xmlns="http://www.w3.org/2000/svg">
<path d="M138.628 80.9718H138.045C139.559 78.5507 140.25 75.7979 139.993 72.9435C139.417 66.5315 134.035 60.1271 129.135 55.5434C129.148 55.5074 129.163 55.4662 129.176 55.4302C129.809 53.6263 129.465 51.5447 128.295 50.1278C127.362 48.9976 126.315 47.9008 125.188 46.8684C124.266 46.0249 122.931 46.2088 122.205 47.2798C121.479 48.3509 121.637 49.9028 122.558 50.7462C123.534 51.6398 124.433 52.5836 125.242 53.5659C125.071 54.0558 124.854 54.6601 124.599 55.3557C122.66 60.6286 117.621 73.4115 111.772 80.9718H104.769C105.786 78.0493 106.927 73.0502 108.208 64.1541C109.285 56.6723 110.115 48.7829 110.623 43.4663C111.987 44.0127 113.571 44.7225 115.232 45.6186C115.521 45.7742 115.825 45.8475 116.123 45.8475C116.925 45.8475 117.693 45.3178 118.053 44.4165C118.546 43.1796 118.082 41.7125 117.018 41.1391C114.787 39.9356 112.684 39.0407 111.006 38.4081C110.874 36.6801 109.966 35.1269 108.58 34.3747C105.568 32.7328 98.9762 29.9774 88.6393 29.9543C85.1689 29.962 82.1223 30.2783 79.4905 30.7579V22.9842C79.4905 16.5413 74.9802 11.2992 69.4368 11.2992H59.6143V2.46865C59.6143 1.10575 58.664 0 57.4902 0H27.3291C26.1554 0 25.2051 1.10575 25.2051 2.46865C25.2051 3.83155 26.1554 4.9373 27.3291 4.9373H55.3662V44.2107C53.1205 45.8424 50.919 47.7967 48.9875 50.1303C47.8204 51.546 47.4763 53.6263 48.1091 55.4302C48.1224 55.4662 48.1368 55.5074 48.1501 55.5447C43.7184 59.6887 38.8973 65.3216 37.5886 71.0972H11.6113C10.9089 71.0972 10.3369 70.4324 10.3369 69.616V4.9373H18.125C19.2987 4.9373 20.249 3.83155 20.249 2.46865C20.249 1.10575 19.2987 0 18.125 0H8.21289C7.03915 0 6.08887 1.10575 6.08887 2.46865V69.616C6.08887 72.7609 8.04695 75.38 10.6201 75.9252V80.9718H6.37207C2.85858 80.9718 0 84.2942 0 88.3777C0 92.4613 2.85858 95.7837 6.37207 95.7837H8.35449V96.6066C8.35449 101.235 11.5936 105 15.5762 105H129.424C133.406 105 136.646 101.235 136.646 96.6066V95.7837H138.628C142.141 95.7837 145 92.4613 145 88.3777C145 84.2942 142.141 80.9718 138.628 80.9718ZM127.384 60.2608C132.428 65.1814 135.449 69.9053 135.768 73.4565C136.014 76.1965 134.603 78.9081 131.885 80.9718H117.263C121.493 74.4723 125.067 66.2319 127.384 60.2608ZM106.775 38.844L106.677 39.9433C106.24 44.8009 105.317 54.2808 104.041 63.1782C101.935 77.8525 100.315 80.5591 99.9884 80.9718H77.2956C76.9638 80.5488 75.3453 77.8243 73.2445 63.1782C71.9679 54.2808 71.0442 44.8009 70.6072 39.942L70.5906 39.7517C70.5906 39.7466 70.5895 39.7402 70.5895 39.735L70.5098 38.844C72.677 37.6624 78.7825 34.9134 88.6382 34.8903C98.5027 34.9121 104.607 37.6624 106.775 38.844ZM59.6651 16.2365H69.4357C72.6372 16.2365 75.2413 19.2645 75.2413 22.9842V31.7492C73.5764 32.2326 72.1615 32.7598 70.9933 33.2651V24.3008C70.9933 22.5779 69.7863 21.1738 68.3028 21.1738H59.6651V16.2365ZM66.7452 26.1111V36.5605C66.5926 36.8999 66.4742 37.2586 66.3934 37.6315H59.6143V26.1111H66.7452ZM58.4637 47.7928C58.5379 47.7491 58.6109 47.7016 58.6795 47.6463C58.6872 47.6398 58.6961 47.6347 58.7049 47.6283C61.5049 45.7459 64.3391 44.3946 66.6623 43.465C67.17 48.7816 67.9997 56.6723 69.0772 64.1541C70.3594 73.0502 71.4988 78.0493 72.5166 80.9718H65.5184C59.653 73.3987 54.6206 60.626 52.6868 55.3582C52.4313 54.6601 52.2145 54.0558 52.0507 53.5505C53.9613 51.2425 56.1959 49.3435 58.4637 47.7928ZM49.9002 60.2621C52.2134 66.228 55.7855 74.4659 60.0247 80.9718H45.2904C42.7338 78.9853 41.3587 76.3688 41.5003 73.7021C41.5036 73.6237 41.5092 73.5453 41.5169 73.4565C41.8366 69.9053 44.8567 65.1827 49.9002 60.2621ZM14.8682 76.0345H37.3861C37.6483 77.7741 38.2689 79.4405 39.2081 80.9718H14.8682V76.0345ZM138.628 90.8464H27.2229C26.0492 90.8464 25.0989 91.9521 25.0989 93.315C25.0989 94.6779 26.0492 95.7837 27.2229 95.7837H132.397V96.6066C132.397 98.5121 131.063 100.063 129.424 100.063H15.5762C13.9367 100.063 12.6025 98.5121 12.6025 96.6066V95.7837H18.125C19.2987 95.7837 20.249 94.6779 20.249 93.315C20.249 91.9521 19.2987 90.8464 18.125 90.8464H6.37207C5.20054 90.8464 4.24805 89.7394 4.24805 88.3777C4.24805 87.0161 5.20054 85.9091 6.37207 85.9091H138.628C139.799 85.9091 140.752 87.0161 140.752 88.3777C140.752 89.7394 139.799 90.8464 138.628 90.8464Z" fill="#C74540"/>
</svg>
