<svg width="125" height="152" viewBox="0 0 125 152" fill="none" xmlns="http://www.w3.org/2000/svg">
<g clip-path="url(#clip0)">
<rect width="125" height="152" fill="white"/>
<path d="M111.801 78.7234L118.988 57.7483C122.619 55.8018 125 51.4469 125 46.5807C125 39.822 120.477 34.3227 114.919 34.3227C109.361 34.3227 104.839 39.822 104.839 46.5807C104.839 48.3357 105.166 50.087 105.791 51.709L98.808 70.1045L97.0666 67.9857C96.1166 66.8281 94.8526 66.1936 93.5098 66.1936H92.5864C92.2113 66.1936 91.8648 65.9315 91.6974 65.5269L91.347 64.6686C90.4895 62.5845 88.7658 61.2904 86.8511 61.2904H86.54C84.6252 61.2904 82.8995 62.5845 82.044 64.671L81.6936 65.5245C81.3343 66.3971 80.1126 66.2894 79.8586 65.3677L79.2158 63.0166C78.5247 60.5183 76.607 58.8388 74.4412 58.8388C72.5265 58.8388 70.8008 60.1328 69.9453 62.2193L69.5948 63.0729C69.4275 63.4799 69.079 63.742 68.7039 63.742H67.5285C67.1879 63.742 66.8552 63.7863 66.5323 63.8641V44.1291H46.5285L52.063 9.80655H66.5323V4.90332H48.7435L42.4194 44.1291H30.2419L41.369 30.5986L39.6738 28.8796C35.3344 24.4839 29.8383 22.0646 24.1935 22.0646C10.8524 22.0646 0 35.2612 0 51.484C0 58.3504 1.98955 65.0337 5.60637 70.308L7.01806 72.367L14.1129 63.7396L14.1149 71.2585L17.8971 140.228C18.1068 144.081 20.7598 147.097 23.9337 147.097H98.7903C113.242 147.097 125 132.799 125 115.226V98.0646H120.865C120.274 90.1208 116.833 83.179 111.801 78.7234V78.7234ZM116.816 98.0646H112.742C111.758 89.7605 105.885 83.3549 98.7903 83.3549C91.6955 83.3549 85.8223 89.7605 84.8389 98.0646H80.7643C81.7704 87.0491 89.4657 78.4517 98.7903 78.4517C108.115 78.4517 115.81 87.0491 116.816 98.0646ZM108.667 98.0646H88.9135C89.8506 92.4778 93.9213 88.2582 98.7903 88.2582C103.659 88.2582 107.73 92.4778 108.667 98.0646V98.0646ZM62.5 88.2582C67.3671 88.2582 71.4397 92.4778 72.3769 98.0646H52.6231C53.5603 92.4778 57.6329 88.2582 62.5 88.2582ZM110.321 51.4768L109.766 50.3635C109.171 49.1724 108.871 47.8999 108.871 46.5807C108.871 42.5262 111.585 39.2259 114.919 39.2259C118.254 39.2259 120.968 42.5262 120.968 46.5807C120.968 49.7243 119.3 52.5111 116.818 53.519L115.947 53.8721L108.3 76.1916C106.305 75.0317 104.15 74.2296 101.881 73.843L101.845 73.7987L110.321 51.4768ZM67.5285 68.6453H68.7039C70.6187 68.6453 72.3444 67.3512 73.1999 65.2647L73.5503 64.4112C73.9116 63.5385 75.1294 63.6463 75.3853 64.568L76.0281 66.9191C76.7173 69.4174 78.6349 71.0969 80.8007 71.0969C82.7154 71.0969 84.4412 69.8028 85.2966 67.7163L85.6471 66.8628C85.8144 66.4558 86.1629 66.1936 86.538 66.1936H86.8491C87.2242 66.1936 87.5707 66.4558 87.738 66.8604L88.0885 67.7187C88.9459 69.8028 90.6697 71.0969 92.5844 71.0969H93.5078C93.7746 71.0969 94.0247 71.2214 94.2137 71.4524L96.1146 73.7639C85.8046 75.2794 77.6554 85.4187 76.7133 98.0646H76.4515C75.468 89.7605 69.5948 83.3549 62.5 83.3549C61.8148 83.3549 61.1454 83.4363 60.4839 83.5512V80.4101C60.4839 80.0031 60.6493 79.6284 60.9279 79.4034L64.2946 76.674C65.6955 75.5368 66.5323 73.6371 66.5323 71.5877V69.8567C66.5323 69.1899 66.9802 68.6453 67.5285 68.6453V68.6453ZM62.5 49.0323V53.9356H56.4516V58.8388H62.5V71.5901C62.5 71.9971 62.3346 72.3718 62.056 72.5968L58.6892 75.3261C58.4559 75.5141 58.264 75.7523 58.0641 75.9833C53.2483 75.8804 48.835 73.9974 44.5665 72.1587C43.7602 71.8127 42.9658 71.4715 42.1733 71.1459L44.157 58.8388H52.4194V53.9356H44.9475L45.738 49.0323H62.5ZM41.627 49.0323L40.8365 53.9356H22.1774L26.2097 49.0323H41.627ZM12.0968 51.484C12.0968 43.3714 17.522 36.7743 24.1935 36.7743C26.0118 36.7743 27.7641 37.2962 29.3815 38.2431L13.3047 57.7949C12.526 55.8282 12.0968 53.695 12.0968 51.484ZM4.03226 51.484C4.03226 37.9654 13.0763 26.9678 24.1935 26.9678C28.153 26.9678 32.0257 28.3971 35.3088 31.0355L32.3447 34.6387C29.8669 32.8539 27.0947 31.8711 24.1935 31.8711C15.3001 31.8711 8.06452 40.6696 8.06452 51.484C8.06452 55.0117 8.87274 58.3851 10.3405 61.3958L7.37738 65.0002C5.20768 61.0115 4.03226 56.301 4.03226 51.484V51.484ZM40.046 58.8388L38.2966 69.6951C36.2962 69.0594 34.3008 68.6453 32.2581 68.6453C26.7885 68.6453 21.4174 70.7198 18.2072 72.2413L18.1452 71.0969V58.8388H40.046ZM23.9337 142.194C22.8774 142.194 21.9923 141.188 21.9234 139.904L18.4917 77.3947C21.0729 76.0683 26.7019 73.5485 32.2581 73.5485C33.9661 73.5485 35.7174 73.9339 37.5179 74.5193L28.2642 131.917L32.2216 132.86L41.3907 76.0001C41.9961 76.2551 42.6045 76.5148 43.2218 76.7794C47.1713 78.4816 51.5865 80.379 56.4516 80.8099V85.0368C52.2746 87.4609 49.2317 92.2983 48.5485 98.067H44.3548V115.228C44.3548 126.569 49.2524 136.545 56.6091 142.196H23.9337V142.194ZM98.7903 142.194H70.5645C58.3368 142.194 48.3871 130.095 48.3871 115.226V112.774H110.887V107.871H48.3871V102.968H120.968V107.871H114.919V112.774H120.968V115.226C120.968 130.095 111.018 142.194 98.7903 142.194Z" fill="#C74540"/>
<path d="M60.4839 90.7097H64.5161V95.6129H60.4839V90.7097Z" fill="#C74540"/>
<path d="M112.903 44.1292H116.936V49.0324H112.903V44.1292Z" fill="#C74540"/>
</g>
<defs>
<clipPath id="clip0">
<rect width="125" height="152" fill="white"/>
</clipPath>
</defs>
</svg>
