<?xml version="1.0" encoding="utf-8"?>
<!-- Generator: Adobe Illustrator 20.0.0, SVG Export Plug-In . SVG Version: 6.00 Build 0)  -->
<!DOCTYPE svg PUBLIC "-//W3C//DTD SVG 1.1//EN" "http://www.w3.org/Graphics/SVG/1.1/DTD/svg11.dtd">
<svg version="1.1" id="Layer_1" xmlns="http://www.w3.org/2000/svg" xmlns:xlink="http://www.w3.org/1999/xlink" x="0px" y="0px"
	 viewBox="0 0 3039.3 735.1" style="enable-background:new 0 0 3039.3 735.1;" xml:space="preserve">
<style type="text/css">
	.st0{fill-rule:evenodd;clip-rule:evenodd;fill:#FF2400;}
	.st1{fill:#333333;}
	.st2{fill-rule:evenodd;clip-rule:evenodd;fill:#FFFFFF;}
	.st3{fill:#FFFFFF;}
</style>
<g>
	<path class="st0" d="M247.1,379.9c5.4,52.7,49.8,93.8,103.9,93.8c54.1,0,98.6-41.1,103.9-93.8c0.4-3.5,0.5-7.1,0.5-10.7
		c0-57.7-46.8-104.4-104.4-104.4c-57.7,0-104.4,46.8-104.4,104.4C246.6,372.8,246.7,376.4,247.1,379.9z M69.4,367.5
		C69.4,212,195.5,85.9,351,85.9c155.5,0,281.6,126.1,281.6,281.6c0,155.5-126.1,281.6-281.6,281.6
		C195.5,649.1,69.4,523.1,69.4,367.5z"/>
	<path class="st1" d="M979.1,365.6c0,85.6-59.3,123-115.3,123c-62.7,0-111-45.9-111-119.1c0-77.5,50.7-123,114.8-123
		C934.1,246.5,979.1,294.8,979.1,365.6z M795.4,368c0,50.7,29.2,89,70.3,89c40.2,0,70.3-37.8,70.3-90c0-39.2-19.6-89-69.4-89
		S795.4,324,795.4,368z"/>
	<path class="st1" d="M1226,420.2c0,23.9,0.5,45,1.9,63.2h-37.3l-2.4-37.8h-1c-11,18.7-35.4,43.1-76.6,43.1
		c-36.4,0-79.9-20.1-79.9-101.4V251.7h42.1V380c0,44,13.4,73.7,51.7,73.7c28.2,0,47.8-19.6,55.5-38.3c2.4-6.2,3.8-13.9,3.8-21.5
		V251.7h42.1V420.2z"/>
	<path class="st1" d="M1441.9,440.3c12.4,8.1,34.4,16.7,55.5,16.7c30.6,0,45-15.3,45-34.4c0-20.1-12-31.1-43.1-42.6
		c-41.6-14.8-61.2-37.8-61.2-65.5c0-37.3,30.1-67.9,79.9-67.9c23.4,0,44,6.7,56.9,14.4l-10.5,30.6c-9.1-5.7-25.8-13.4-47.4-13.4
		c-24.9,0-38.8,14.4-38.8,31.6c0,19.1,13.9,27.8,44,39.2c40.2,15.3,60.8,35.4,60.8,69.9c0,40.7-31.6,69.9-86.6,69.9
		c-25.4,0-48.8-6.7-65.1-16.3L1441.9,440.3z"/>
	<path class="st1" d="M1853.4,440.3c12.4,8.1,34.5,16.7,55.5,16.7c30.6,0,45-15.3,45-34.4c0-20.1-12-31.1-43.1-42.6
		c-41.6-14.8-61.2-37.8-61.2-65.5c0-37.3,30.1-67.9,79.9-67.9c23.4,0,44,6.7,56.9,14.4l-10.5,30.6c-9.1-5.7-25.8-13.4-47.4-13.4
		c-24.9,0-38.8,14.4-38.8,31.6c0,19.1,13.9,27.8,44,39.2c40.2,15.3,60.8,35.4,60.8,69.9c0,40.7-31.6,69.9-86.6,69.9
		c-25.4,0-48.8-6.7-65.1-16.3L1853.4,440.3z"/>
	<path class="st1" d="M2434.6,314.4c0-23.9-0.5-43.5-1.9-62.7h36.8l1.9,37.3h1.4c12.9-22,34.4-42.6,72.7-42.6
		c31.6,0,55.5,19.1,65.5,46.4h1c7.2-12.9,16.3-23,25.8-30.1c13.9-10.5,29.2-16.3,51.2-16.3c30.6,0,76.1,20.1,76.1,100.5v136.4h-41.1
		V352.2c0-44.5-16.3-71.3-50.2-71.3c-23.9,0-42.6,17.7-49.8,38.3c-1.9,5.7-3.3,13.4-3.3,21.1v143.1h-41.1V344.6
		c0-36.8-16.3-63.6-48.3-63.6c-26.3,0-45.5,21.1-52.2,42.1c-2.4,6.2-3.3,13.4-3.3,20.6v139.7h-41.1V314.4z"/>
	<path class="st1" d="M2827.3,440.3c12.4,8.1,34.5,16.7,55.5,16.7c30.6,0,45-15.3,45-34.4c0-20.1-12-31.1-43.1-42.6
		c-41.6-14.8-61.2-37.8-61.2-65.5c0-37.3,30.1-67.9,79.9-67.9c23.4,0,44,6.7,56.9,14.4l-10.5,30.6c-9.1-5.7-25.8-13.4-47.4-13.4
		c-24.9,0-38.8,14.4-38.8,31.6c0,19.1,13.9,27.8,44,39.2c40.2,15.3,60.8,35.4,60.8,69.9c0,40.7-31.6,69.9-86.6,69.9
		c-25.4,0-48.8-6.7-65.1-16.3L2827.3,440.3z"/>
	<path class="st1" d="M1778.6,251.1l-45.9,135.8c-5.7,16.7-10.5,36.2-14.8,48.2h-1c-3.8-12-9.6-32-14.8-47.3l-50.7-136.7h-45.9
		l85.6,213.7c1.9,5.3,2.9,8.8,2.9,11.2s-1.4,5.8-3.3,10.1c-9.6,21.5-23.9,37.8-35.4,46.9c-12.4,10.5-26.3,17.2-36.8,20.6l11.4,35.2
		c10.8-2.2,30.8-9.4,50.7-27.1c28.7-24.9,49.3-65.9,79.4-145.3l63.2-165.4H1778.6z"/>
	<path class="st1" d="M2381,375.1c0.5-4,1.4-11,1.4-19.7c0-42.7-20.1-109.4-95.9-109.4c-67.6,0-108.9,55.2-108.9,125.2
		s42.7,117.5,114.1,117.5c36.9,0,61.5-10,76.4-16.7l-10.5-32.1c-35.3,14.4-61.7,17.2-81.4,13.5c-8.2-1.8-15.9-4.6-22.9-8.6
		c-31.2-19.1-35-59.5-35.4-68.1c0-0.6-0.1-1.6-0.1-1.6H2381z M2283.2,276.5c47.5,0,59,41.6,58.5,68.6h-123.3
		C2221.8,318.1,2240.5,276.5,2283.2,276.5z"/>
	<path class="st1" d="M1390,440.7c0,0-14.5,10.6-26.1,10.4c-14.6-0.2-24.5-10.3-24.5-38.6V282.1h60v-30h-60v-82.5l-44,31.4v209.1
		c0,27.3,5.6,47.8,17.6,60.3c6,6.8,14.5,12,24.3,15c35.3,12.1,63.1-12.6,63.1-12.6L1390,440.7z"/>
	<path class="st1" d="M2142,440.7c0,0-14.5,10.6-26.1,10.4c-14.6-0.2-24.5-10.3-24.5-38.6V282.1h60v-30h-60v-82.5l-44,31.4v209.1
		c0,27.3,5.6,47.8,17.6,60.3c6,6.8,14.5,12,24.3,15c35.3,12.1,63.1-12.6,63.1-12.6L2142,440.7z"/>
</g>
<g>
	<path class="st2" d="M247.1,2282c5.4,52.7,49.8,93.8,103.9,93.8c54.1,0,98.6-41.1,103.9-93.8c0.4-3.5,0.5-7.1,0.5-10.7
		c0-57.7-46.8-104.4-104.4-104.4c-57.7,0-104.4,46.8-104.4,104.4C246.6,2274.9,246.7,2278.5,247.1,2282z M69.4,2269.6
		c0-155.5,126.1-281.6,281.6-281.6c155.5,0,281.6,126.1,281.6,281.6c0,155.5-126.1,281.6-281.6,281.6
		C195.5,2551.2,69.4,2425.1,69.4,2269.6z"/>
	<path class="st3" d="M979.1,2267.7c0,85.6-59.3,123-115.3,123c-62.7,0-111-45.9-111-119.1c0-77.5,50.7-123,114.8-123
		C934.1,2148.6,979.1,2196.9,979.1,2267.7z M795.4,2270.1c0,50.7,29.2,89,70.3,89c40.2,0,70.3-37.8,70.3-90c0-39.2-19.6-89-69.4-89
		S795.4,2226.1,795.4,2270.1z"/>
	<path class="st3" d="M1226,2322.2c0,23.9,0.5,45,1.9,63.2h-37.3l-2.4-37.8h-1c-11,18.7-35.4,43.1-76.6,43.1
		c-36.4,0-79.9-20.1-79.9-101.4v-135.4h42.1v128.2c0,44,13.4,73.7,51.7,73.7c28.2,0,47.8-19.6,55.5-38.3c2.4-6.2,3.8-13.9,3.8-21.5
		v-142.1h42.1V2322.2z"/>
	<path class="st3" d="M1441.9,2342.3c12.4,8.1,34.4,16.7,55.5,16.7c30.6,0,45-15.3,45-34.4c0-20.1-12-31.1-43.1-42.6
		c-41.6-14.8-61.2-37.8-61.2-65.5c0-37.3,30.1-67.9,79.9-67.9c23.4,0,44,6.7,56.9,14.4l-10.5,30.6c-9.1-5.7-25.8-13.4-47.4-13.4
		c-24.9,0-38.8,14.4-38.8,31.6c0,19.1,13.9,27.8,44,39.2c40.2,15.3,60.8,35.4,60.8,69.9c0,40.7-31.6,69.9-86.6,69.9
		c-25.4,0-48.8-6.7-65.1-16.3L1441.9,2342.3z"/>
	<path class="st3" d="M1853.4,2342.3c12.4,8.1,34.5,16.7,55.5,16.7c30.6,0,45-15.3,45-34.4c0-20.1-12-31.1-43.1-42.6
		c-41.6-14.8-61.2-37.8-61.2-65.5c0-37.3,30.1-67.9,79.9-67.9c23.4,0,44,6.7,56.9,14.4l-10.5,30.6c-9.1-5.7-25.8-13.4-47.4-13.4
		c-24.9,0-38.8,14.4-38.8,31.6c0,19.1,13.9,27.8,44,39.2c40.2,15.3,60.8,35.4,60.8,69.9c0,40.7-31.6,69.9-86.6,69.9
		c-25.4,0-48.8-6.7-65.1-16.3L1853.4,2342.3z"/>
	<path class="st3" d="M2434.6,2216.5c0-23.9-0.5-43.5-1.9-62.7h36.8l1.9,37.3h1.4c12.9-22,34.4-42.6,72.7-42.6
		c31.6,0,55.5,19.1,65.5,46.4h1c7.2-12.9,16.3-23,25.8-30.1c13.9-10.5,29.2-16.3,51.2-16.3c30.6,0,76.1,20.1,76.1,100.5v136.4h-41.1
		v-131.1c0-44.5-16.3-71.3-50.2-71.3c-23.9,0-42.6,17.7-49.8,38.3c-1.9,5.7-3.3,13.4-3.3,21.1v143.1h-41.1v-138.8
		c0-36.8-16.3-63.6-48.3-63.6c-26.3,0-45.5,21.1-52.2,42.1c-2.4,6.2-3.3,13.4-3.3,20.6v139.7h-41.1V2216.5z"/>
	<path class="st3" d="M2827.3,2342.3c12.4,8.1,34.5,16.7,55.5,16.7c30.6,0,45-15.3,45-34.4c0-20.1-12-31.1-43.1-42.6
		c-41.6-14.8-61.2-37.8-61.2-65.5c0-37.3,30.1-67.9,79.9-67.9c23.4,0,44,6.7,56.9,14.4l-10.5,30.6c-9.1-5.7-25.8-13.4-47.4-13.4
		c-24.9,0-38.8,14.4-38.8,31.6c0,19.1,13.9,27.8,44,39.2c40.2,15.3,60.8,35.4,60.8,69.9c0,40.7-31.6,69.9-86.6,69.9
		c-25.4,0-48.8-6.7-65.1-16.3L2827.3,2342.3z"/>
	<path class="st3" d="M1778.6,2153.1l-45.9,135.8c-5.7,16.7-10.5,36.2-14.8,48.2h-1c-3.8-12-9.6-32-14.8-47.3l-50.7-136.7h-45.9
		l85.6,213.8c1.9,5.3,2.9,8.8,2.9,11.2c0,2.4-1.4,5.8-3.3,10.1c-9.6,21.5-23.9,37.8-35.4,46.9c-12.4,10.5-26.3,17.2-36.8,20.6
		l11.4,35.2c10.8-2.2,30.8-9.4,50.7-27.1c28.7-24.9,49.3-65.9,79.4-145.3l63.2-165.4H1778.6z"/>
	<path class="st3" d="M2381,2277.1c0.5-4,1.4-11,1.4-19.6c0-42.7-20.1-109.3-95.9-109.3c-67.6,0-108.9,55.2-108.9,125.2
		c0,70,42.7,117.5,114.1,117.5c36.9,0,61.5-10,76.4-16.7l-10.5-32.1c-35.3,14.4-61.7,17.2-81.4,13.5c-8.2-1.8-15.9-4.6-22.9-8.6
		c-31.2-19.1-35-59.5-35.4-68.1c0-0.6-0.1-1.7-0.1-1.7H2381z M2283.2,2178.5c47.5,0,59,41.6,58.5,68.6h-123.3
		C2221.8,2220.1,2240.5,2178.5,2283.2,2178.5z"/>
	<path class="st3" d="M1390,2342.8c0,0-14.5,10.6-26.1,10.4c-14.6-0.2-24.5-10.3-24.5-38.6v-130.5h60v-30h-60v-82.4l-44,31.4v209.1
		c0,27.3,5.6,47.8,17.6,60.3c6,6.8,14.5,12,24.3,15c35.3,12.1,63.1-12.6,63.1-12.6L1390,2342.8z"/>
	<path class="st3" d="M2142,2342.8c0,0-14.5,10.6-26.1,10.4c-14.6-0.2-24.5-10.3-24.5-38.6v-130.5h60v-30h-60v-82.4l-44,31.4v209.1
		c0,27.3,5.6,47.8,17.6,60.3c6,6.8,14.5,12,24.3,15c35.3,12.1,63.1-12.6,63.1-12.6L2142,2342.8z"/>
</g>
</svg>
