<?xml version="1.0" encoding="utf-8"?>
<!-- Generator: Adobe Illustrator 16.0.0, SVG Export Plug-In . SVG Version: 6.00 Build 0)  -->
<!DOCTYPE svg PUBLIC "-//W3C//DTD SVG 1.1//EN" "http://www.w3.org/Graphics/SVG/1.1/DTD/svg11.dtd">
<svg version="1.1" xmlns="http://www.w3.org/2000/svg" xmlns:xlink="http://www.w3.org/1999/xlink" x="0px" y="0px" width="100px"
	 height="100px" viewBox="0 0 100 100" enable-background="new 0 0 100 100" xml:space="preserve">
<g id="Layer_2" display="none">
	<rect x="-1" display="inline" fill="#E50EBD" width="104.833" height="90.501"/>
</g>
<g id="Layer_1">
	<g>
		<linearGradient id="SVGID_1_" gradientUnits="userSpaceOnUse" x1="49.9165" y1="39.8262" x2="49.9165" y2="88.9125">
			<stop  offset="0" style="stop-color:#33BEC2"/>
			<stop  offset="1" style="stop-color:#3B3B3B"/>
		</linearGradient>
		<path fill="url(#SVGID_1_)" d="M50.25,11.667c-13.878,0-25.5,11.655-25.5,25.37c0,29.256,23.018,49.354,23.998,50.199
			c0.665,0.574,1.673,0.574,2.337,0c0.98-0.846,23.989-20.943,23.998-50.199C75.083,23.322,64.129,11.667,50.25,11.667z M50.083,52
			c-8.84,0-16-7.161-16-16s7.16-16,16-16s16,7.16,16,16S58.923,52,50.083,52z"/>
		<path fill="#FFFFFF" d="M49.917,8c-15.44,0-28,12.41-28,27.67c0,32.55,25.61,54.91,26.7,55.851c0.74,0.64,1.859,0.64,2.599,0
			c1.09-0.94,26.69-23.301,26.7-55.851C77.916,20.41,65.356,8,49.917,8 M49.917,87.271c-5.18-4.99-24-24.971-24-51.601
			c0-13.05,10.77-23.67,24-23.67s24,10.62,24,23.67C73.906,62.26,55.096,82.271,49.917,87.271 M49.917,20c-8.84,0-16,7.16-16,16
			c0,8.84,7.16,16,16,16c8.839,0,16-7.16,16-16C65.916,27.16,58.756,20,49.917,20 M49.917,48c-6.62,0-12-5.38-12-12s5.38-12,12-12
			c6.62,0,12,5.38,12,12S56.536,48,49.917,48"/>
	</g>
</g>
</svg>
